<?xml version="1.0" encoding="iso-8859-1"?>
<!-- Generator: Adobe Illustrator 19.0.0, SVG Export Plug-In . SVG Version: 6.00 Build 0)  -->
<svg version="1.1" id="Capa_1" xmlns="http://www.w3.org/2000/svg" xmlns:xlink="http://www.w3.org/1999/xlink" x="0px" y="0px"
	 viewBox="0 0 512 512" style="enable-background:new 0 0 512 512;" xml:space="preserve">
<g>
	<g>
		<g>
			<path d="M494.793,378.574H471.23v-23.828h13.855c9.488,0,17.207-7.719,17.207-17.207v-19.414c0-9.488-7.719-17.207-17.207-17.207
				H471.23v-31.594h13.855c9.488,0,17.207-7.719,17.207-17.207V172.52c0-9.488-7.719-17.207-17.207-17.207h-14.462
				c-3.594-21.993-22.729-38.828-45.722-38.828h-2.207V100.53c5.75-2.871,9.707-8.815,9.707-15.667V46.621
				c0-6.852-3.958-12.796-9.707-15.667v-18.6C422.695,5.542,417.154,0,410.342,0h-29.121c-6.812,0-12.354,5.542-12.354,12.354
				v18.601c-5.75,2.871-9.707,8.815-9.707,15.667v38.242c0,6.852,3.958,12.796,9.707,15.667v15.954h-33.535V51.182
				c0-12.164-9.896-22.061-22.061-22.061c-12.165,0-22.061,9.896-22.061,22.061v65.303H141.19V102.63
				c0-9.488-7.719-17.207-17.207-17.207H104.57c-9.488,0-17.207,7.719-17.207,17.207v13.855h-2.207
				c-25.545,0-46.328,20.783-46.328,46.328V269.59c0,14.84,12.074,26.914,26.914,26.914h21.621v13.855
				c0,9.488,7.719,17.207,17.207,17.207h2.207v12.18h-2.207c-4.142,0-7.5,3.358-7.5,7.5c0,4.142,3.358,7.5,7.5,7.5h2.207v10.242
				h-73.61c-5.779,0-11.18,2.846-14.446,7.611c-1.266,1.846-2.149,3.886-2.634,6.011C7.118,379.189,0,386.669,0,395.781v67.464
				c0,9.488,7.719,17.207,17.207,17.207h50.742v14.341c0,9.488,7.719,17.207,17.207,17.207h50.477
				c9.488,0,17.207-7.719,17.207-17.207v-14.341h206.32v14.341c0,9.488,7.719,17.207,17.207,17.207h50.477
				c9.488,0,17.207-7.719,17.207-17.207v-14.341h50.742c9.488,0,17.207-7.719,17.207-17.207v-67.464
				C512,386.293,504.281,378.574,494.793,378.574z M471.23,170.313h13.855c1.217,0,2.207,0.99,2.207,2.207v79.598
				c0,1.217-0.99,2.207-2.207,2.207H471.23V170.313z M471.23,315.918h13.855c1.217,0,2.207,0.99,2.207,2.207v19.414
				c0,1.217-0.99,2.207-2.207,2.207H471.23V315.918z M383.867,15h23.828v14.121h-23.828V15z M374.16,73.242h21.621
				c4.142,0,7.5-3.358,7.5-7.5c0-4.142-3.358-7.5-7.5-7.5H374.16V46.621c0-1.378,1.122-2.5,2.5-2.5h38.242
				c1.378,0,2.5,1.122,2.5,2.5v38.242c0,1.378-1.122,2.5-2.5,2.5H376.66c-1.378,0-2.5-1.122-2.5-2.5V73.242z M407.695,102.363
				v14.121h-23.828v-14.121H407.695z M313.272,44.121c3.894,0,7.061,3.167,7.061,7.061v65.303h-14.121V51.182h-0.001
				C306.211,47.289,309.378,44.121,313.272,44.121z M102.363,102.629c0-1.217,0.99-2.207,2.207-2.207h19.414
				c1.217,0,2.207,0.99,2.207,2.207v13.855h-11.914h-11.914V102.629z M131.045,196.787c0,9.246-7.522,16.768-16.768,16.768
				c-9.246,0-16.768-7.522-16.768-16.768c0-9.246,7.522-16.768,16.768-16.768C123.523,180.019,131.045,187.542,131.045,196.787z
				 M65.742,281.505L65.742,281.505c-6.569-0.001-11.914-5.346-11.914-11.915V162.813c0-17.274,14.054-31.328,31.328-31.328h21.621
				v34.429c-13.909,3.38-24.268,15.94-24.268,30.874c0,14.934,10.359,27.494,24.268,30.874v32.222c0,4.142,3.358,7.5,7.5,7.5
				c4.142,0,7.5-3.358,7.5-7.5v-32.222c13.909-3.38,24.268-15.94,24.268-30.874s-10.359-27.494-24.268-30.874v-34.429h303.125
				c17.274,0,31.328,14.054,31.328,31.328v215.276H275.148V269.59c0-14.84-12.074-26.914-26.914-26.914H167.08
				c-12.785,0-23.884,9.099-26.392,21.636l-1.523,7.615c-1.11,5.55-6.023,9.578-11.683,9.578H65.742z M104.57,312.566
				c-1.217,0-2.207-0.99-2.207-2.207v-13.855h23.828v13.855c0,1.217-0.99,2.207-2.207,2.207H104.57z M137.84,494.793
				c0,1.217-0.99,2.207-2.207,2.207H85.156c-1.217,0-2.207-0.99-2.207-2.207v-14.341h54.891V494.793z M429.051,494.793
				c0,1.217-0.99,2.207-2.207,2.207h-50.477c-1.217,0-2.207-0.99-2.207-2.207v-14.341h54.891V494.793z M497,417.402H375.396
				c-4.142,0-7.5,3.358-7.5,7.5c0,4.142,3.358,7.5,7.5,7.5H497v30.843c0,1.217-0.99,2.207-2.207,2.207H17.207
				c-1.217,0-2.207-0.99-2.207-2.207v-67.464c0-1.217,0.99-2.207,2.207-2.207h2.382c1.671,2.049,3.805,3.716,6.274,4.849
				l81.11,37.208c4.642,2.13,9.966,2.129,14.607,0l81.11-37.208c4.707-2.159,8.198-6.259,9.579-11.25
				c1.38-4.991,0.493-10.303-2.435-14.574c-3.267-4.766-8.668-7.611-14.446-7.611h-53.204c-4.142,0-7.5,3.358-7.5,7.5
				c0,4.142,3.358,7.5,7.5,7.5h53.204c0.83,0,1.606,0.409,2.075,1.093c0.576,0.839,0.466,1.671,0.35,2.093
				c-0.117,0.421-0.45,1.19-1.376,1.615l-81.111,37.208c-0.666,0.306-1.429,0.306-2.097,0l-81.111-37.208
				c-0.925-0.424-1.258-1.194-1.375-1.615c-0.117-0.421-0.226-1.253,0.35-2.093c0.469-0.684,1.244-1.092,2.074-1.092h73.611v6.086
				c0,4.142,3.358,7.5,7.5,7.5c4.142,0,7.5-3.358,7.5-7.5v-58.508h2.207c9.488,0,17.207-7.719,17.207-17.207v-17.63
				c6.392-3.799,11.148-10.187,12.683-17.862l1.523-7.615c1.11-5.549,6.023-9.577,11.683-9.577h81.154
				c6.569,0,11.914,5.345,11.914,11.914v108.984h-31.49c-4.142,0-7.5,3.358-7.5,7.5c0,4.142,3.358,7.5,7.5,7.5h266.134
				c1.217,0,2.207,0.99,2.207,2.207V417.402z"/>
			<path d="M366.66,345.039c30.898,0,56.035-25.137,56.035-56.035s-25.137-56.035-56.035-56.035s-56.035,25.137-56.035,56.035
				S335.762,345.039,366.66,345.039z M366.66,247.969c22.627,0,41.035,18.408,41.035,41.035s-18.408,41.035-41.035,41.035
				s-41.035-18.408-41.035-41.035S344.033,247.969,366.66,247.969z"/>
			<path d="M337.832,199.434h67.363c9.649,0,17.5-7.851,17.5-17.5v-9.121c0-9.649-7.851-17.5-17.5-17.5h-67.363
				c-9.649,0-17.5,7.851-17.5,17.5v9.121C320.332,191.583,328.183,199.434,337.832,199.434z M335.332,172.813
				c0-1.378,1.122-2.5,2.5-2.5h67.363c1.378,0,2.5,1.122,2.5,2.5v9.121c0,1.378-1.122,2.5-2.5,2.5h-67.363
				c-1.378,0-2.5-1.122-2.5-2.5V172.813z"/>
			<path d="M366.66,315.918c14.84,0,26.914-12.074,26.914-26.914c0-14.84-12.074-26.914-26.914-26.914
				c-14.84,0-26.914,12.074-26.914,26.914C339.746,303.844,351.82,315.918,366.66,315.918z M366.66,277.09
				c6.569,0,11.914,5.345,11.914,11.914c0,6.569-5.345,11.914-11.914,11.914c-6.569,0-11.914-5.345-11.914-11.914
				C354.746,282.435,360.091,277.09,366.66,277.09z"/>
			<path d="M347.732,417.402H191.934c-4.142,0-7.5,3.358-7.5,7.5c0,4.142,3.358,7.5,7.5,7.5h155.797c4.142,0,7.5-3.358,7.5-7.5
				C355.231,420.76,351.874,417.402,347.732,417.402z"/>
		</g>
	</g>
</g>
<g>
</g>
<g>
</g>
<g>
</g>
<g>
</g>
<g>
</g>
<g>
</g>
<g>
</g>
<g>
</g>
<g>
</g>
<g>
</g>
<g>
</g>
<g>
</g>
<g>
</g>
<g>
</g>
<g>
</g>
</svg>
